<svg xmlns="http://www.w3.org/2000/svg" viewBox="0 0 560 284" width="560" height="284" role="img" aria-label="Output tokens by entry, stacked by agent family" font-family="-apple-system, 'Segoe UI', Helvetica, Arial, sans-serif">
<text x="0.0" y="16.0" font-size="15" text-anchor="start" fill="#1f2328" font-weight="600">Output tokens by entry and agent family</text>
<text x="0.0" y="34.0" font-size="12" text-anchor="start" fill="#52514e">millions of output tokens; input and cache tokens are not on this scale (see table)</text>
<rect x="0.00" y="49.00" width="10.00" height="10.00" fill="#2a78d6" rx="2"/>
<text x="14.0" y="58.0" font-size="12" text-anchor="start" fill="#52514e">Claude, server harness</text>
<rect x="177.84" y="49.00" width="10.00" height="10.00" fill="#eb6834" rx="2"/>
<text x="191.8" y="58.0" font-size="12" text-anchor="start" fill="#52514e">Claude, laptop sessions</text>
<rect x="362.40" y="49.00" width="10.00" height="10.00" fill="#1baf7a" rx="2"/>
<text x="376.4" y="58.0" font-size="12" text-anchor="start" fill="#52514e">GPT (codex CLI)</text>
<text x="164.0" y="94.0" font-size="12" text-anchor="end" fill="#1f2328">dms-star6</text>
<rect x="172.00" y="80.00" width="260.32" height="20.00" fill="#2a78d6"/>
<text x="303.2" y="114.0" font-size="11" text-anchor="middle" fill="#52514e">67.1</text>
<rect x="434.32" y="80.00" width="0.75" height="20.00" fill="#eb6834"/>
<rect x="435.07" y="80.00" width="40.93" height="20.00" fill="#1baf7a"/>
<text x="456.5" y="114.0" font-size="11" text-anchor="middle" fill="#52514e">11.0</text>
<text x="484.0" y="94.0" font-size="12" text-anchor="start" fill="#1f2328" font-weight="600">78.3 M</text>
<text x="164.0" y="140.0" font-size="12" text-anchor="end" fill="#1f2328">shared/steering</text>
<rect x="172.00" y="126.00" width="6.46" height="20.00" fill="#eb6834"/>
<text x="186.5" y="140.0" font-size="12" text-anchor="start" fill="#1f2328" font-weight="600">2.17 M</text>
<text x="164.0" y="186.0" font-size="12" text-anchor="end" fill="#1f2328">erdos-m2-formalizations</text>
<rect x="172.00" y="172.00" width="3.34" height="20.00" fill="#1baf7a"/>
<text x="181.3" y="186.0" font-size="12" text-anchor="start" fill="#1f2328" font-weight="600">0.86 M</text>
<text x="164.0" y="232.0" font-size="12" text-anchor="end" fill="#1f2328">ramsey-k4-multiplicity</text>
<rect x="172.00" y="218.00" width="0.44" height="20.00" fill="#1baf7a"/>
<text x="178.4" y="232.0" font-size="12" text-anchor="start" fill="#1f2328" font-weight="600">0.12 M</text>
<line x1="172.0" y1="74.0" x2="172.0" y2="248.0" stroke="#c3c2b7" stroke-width="1"/>
<text x="0.0" y="280.0" font-size="11" text-anchor="start" fill="#52514e">Output of Claude laptop subagents is a lower bound (stream-start records only).</text>
</svg>
